<svg width="260" height="260" viewBox="0 0 260 260" fill="none" xmlns="http://www.w3.org/2000/svg">
<g clip-path="url(#clip0)">
<rect width="260" height="260" rx="18" fill="white"/>
<rect x="-12" y="-11" width="285" height="283" fill="url(#paint0_linear)"/>
<path d="M203.4 108.991C193.2 77.1907 162.8 55.5907 129.4 55.5907C84.2 55.5907 53 87.9907 53 131.991C53 176.191 84.2 208.591 129.4 208.591C162.8 208.591 193.2 187.191 203.4 154.991C203.8 153.791 203 152.391 201.8 151.991C200.4 151.591 199.2 152.191 198.8 153.591C189.2 183.791 161 203.791 129.4 203.791C87 203.791 57.6 173.591 57.6 131.991C57.6 90.3907 87 60.3907 129.4 60.3907C161 60.3907 189.2 80.3907 198.8 110.391C199.2 111.791 200.4 112.391 201.8 111.991C203 111.791 203.8 110.191 203.4 108.991ZM89.4 155.391C97.6 169.791 112.8 178.991 129.4 178.991C155.2 178.991 175.6 157.591 175.6 131.991C175.6 106.591 155.2 85.1907 129.4 85.1907C112.8 85.1907 97.6 94.1907 89.4 108.591C88.8 109.791 89.2 111.191 90.2 111.991C91.4 112.591 93 112.191 93.6 110.991C100.8 97.9907 114.4 89.7907 129.4 89.7907C152.6 89.7907 170.8 108.991 170.8 131.991C170.8 154.991 152.6 174.191 129.4 174.191C114.4 174.191 100.8 165.991 93.6 152.991C93 151.991 91.4 151.591 90.2 152.191C89.2 152.791 88.8 154.391 89.4 155.391Z" fill="white"/>
<path d="M203.87 108.991C193.67 77.1907 163.27 55.5907 129.87 55.5907C84.6697 55.5907 53.4697 87.9907 53.4697 131.991C53.4697 176.191 84.6697 208.591 129.87 208.591C163.27 208.591 193.67 187.191 203.87 154.991C204.27 153.791 203.47 152.391 202.27 151.991C200.87 151.591 199.67 152.191 199.27 153.591C189.67 183.791 161.47 203.791 129.87 203.791C87.4697 203.791 58.0697 173.591 58.0697 131.991C58.0697 90.3907 87.4697 60.3907 129.87 60.3907C161.47 60.3907 189.67 80.3907 199.27 110.391C199.67 111.791 200.87 112.391 202.27 111.991C203.47 111.791 204.27 110.191 203.87 108.991ZM89.8697 155.391C98.0697 169.791 113.27 178.991 129.87 178.991C155.67 178.991 176.07 157.591 176.07 131.991C176.07 106.591 155.67 85.1907 129.87 85.1907C113.27 85.1907 98.0697 94.1907 89.8697 108.591C89.2697 109.791 89.6697 111.191 90.6697 111.991C91.8697 112.591 93.4697 112.191 94.0697 110.991C101.27 97.9907 114.87 89.7907 129.87 89.7907C153.07 89.7907 171.27 108.991 171.27 131.991C171.27 154.991 153.07 174.191 129.87 174.191C114.87 174.191 101.27 165.991 94.0697 152.991C93.4697 151.991 91.8697 151.591 90.6697 152.191C89.6697 152.791 89.2697 154.391 89.8697 155.391Z" fill="white"/>
</g>
<defs>
<linearGradient id="paint0_linear" x1="-57.9677" y1="1.86364" x2="340.96" y2="274.793" gradientUnits="userSpaceOnUse">
<stop stop-color="#FFD3A5"/>
<stop offset="1" stop-color="#FD6585"/>
</linearGradient>
<clipPath id="clip0">
<rect width="260" height="260" rx="18" fill="white"/>
</clipPath>
</defs>
</svg>
